ffmpeg started on 2025-05-29 at 16:31:21
Report written to "D:\Convert\FFMetrics\reports\psnr_report-6.txt"
Log level: 32
Command line:
ffmpeg -hide_banner -nostdin -i "G:\\\xc0\xed\xe8\xec\xe5\\\xce\xed\xe3\xee\xe8\xed\xe3\xe8\\!_36_\xce\xf1\xe5\xed\xfc_2024\\JamClub\\\xd2\xfb - \xe3\xee\xf0\xed\xe8\xf7\xed\xe0\xff\\JamClub_Kimi_wa_Meido_sama_08_1080p_HEVC.mkv" -i "G:\\\xc0\xed\xe8\xec\xe5\\\xce\xed\xe3\xee\xe8\xed\xe3\xe8\\!_36_\xce\xf1\xe5\xed\xfc_2024\\JamClub\\\xd2\xfb - \xe3\xee\xf0\xed\xe8\xf7\xed\xe0\xff\\JamClub_Kimi_wa_Meido_sama_08_1080p.mp4" -lavfi "[0:v]settb=AVTB,setpts=PTS-STARTPTS,format=pix_fmts=yuv420p10,fps=24000/1001,scale=1920:1080:flags=bicubic[main];[1:v]settb=AVTB,setpts=PTS-STARTPTS,format=pix_fmts=yuv420p,fps=24000/1001,scale=1920:1080:flags=bicubic[ref];[main][ref]psnr=eof_action=endall:stats_file='D\\:/Convert/FFMetrics/logs/psnr_logfile-6.txt'" -f null -
Input #0, matroska,webm, from 'G:\Аниме\Онгоинги\!_36_Осень_2024\JamClub\Ты - горничная\JamClub_Kimi_wa_Meido_sama_08_1080p_HEVC.mkv':
  Metadata:
    COMPATIBLE_BRANDS: isomiso2avc1mp41
    MAJOR_BRAND     : isom
    MINOR_VERSION   : 512
    ENCODER         : Lavf61.7.100
  Duration: 00:23:22.31, start: -0.001000, bitrate: 1994 kb/s
  Stream #0:0: Video: hevc (Main 10), yuv420p10le(tv, bt709, progressive), 1920x1080 [SAR 1:1 DAR 16:9], 23.98 fps, 23.98 tbr, 1k tbn (default)
      Metadata:
        HANDLER_NAME    : VideoHandler
        VENDOR_ID       : [0][0][0][0]
        ENCODER         : Lavc61.19.100 libx265
        BPS             : 1796685
        DURATION        : 00:23:22.233708333
        NUMBER_OF_FRAMES: 33620
        NUMBER_OF_BYTES : 314921459
        _STATISTICS_WRITING_APP: mkvpropedit v66.0.0 ('Josie') 64-bit
        _STATISTICS_WRITING_DATE_UTC: 2025-05-29 10:50:48
        _STATISTICS_TAGS: BPS DURATION NUMBER_OF_FRAMES NUMBER_OF_BYTES
  Stream #0:1(eng): Audio: aac (LC), 48000 Hz, stereo, fltp (default)
      Metadata:
        HANDLER_NAME    : SoundHandler
        VENDOR_ID       : [0][0][0][0]
        ENCODER         : Lavc61.19.100 aac
        BPS             : 193728
        DURATION        : 00:23:22.264000000
        NUMBER_OF_FRAMES: 65732
        NUMBER_OF_BYTES : 33957242
        _STATISTICS_WRITING_APP: mkvpropedit v66.0.0 ('Josie') 64-bit
        _STATISTICS_WRITING_DATE_UTC: 2025-05-29 10:50:48
        _STATISTICS_TAGS: BPS DURATION NUMBER_OF_FRAMES NUMBER_OF_BYTES
Input #1, mov,mp4,m4a,3gp,3g2,mj2, from 'G:\Аниме\Онгоинги\!_36_Осень_2024\JamClub\Ты - горничная\JamClub_Kimi_wa_Meido_sama_08_1080p.mp4':
  Metadata:
    major_brand     : isom
    minor_version   : 512
    compatible_brands: isomiso2avc1mp41
    encoder         : Lavf60.16.100
  Duration: 00:23:22.28, start: 0.000000, bitrate: 4645 kb/s
  Stream #1:0[0x1](und): Video: h264 (High) (avc1 / 0x31637661), yuv420p(progressive), 1920x1080 [SAR 1:1 DAR 16:9], 4447 kb/s, 23.98 fps, 23.98 tbr, 90k tbn (default)
      Metadata:
        handler_name    : VideoHandler
        vendor_id       : [0][0][0][0]
  Stream #1:1[0x2](eng): Audio: aac (LC) (mp4a / 0x6134706D), 48000 Hz, stereo, fltp, 191 kb/s (default)
      Metadata:
        handler_name    : SoundHandler
        vendor_id       : [0][0][0][0]
Stream mapping:
  Stream #0:0 (hevc) -> settb:default
  Stream #1:0 (h264) -> settb:default
  psnr:default -> Stream #0:0 (wrapped_avframe)
  Stream #0:1 -> #0:1 (aac (native) -> pcm_s16le (native))
Output #0, null, to 'pipe:':
  Metadata:
    COMPATIBLE_BRANDS: isomiso2avc1mp41
    MAJOR_BRAND     : isom
    MINOR_VERSION   : 512
    encoder         : Lavf61.7.100
  Stream #0:0: Video: wrapped_avframe, yuv420p10le(tv, bt709, progressive), 1920x1080 [SAR 1:1 DAR 16:9], q=2-31, 200 kb/s, 23.98 fps, 23.98 tbn
      Metadata:
        encoder         : Lavc61.19.100 wrapped_avframe
  Stream #0:1(eng): Audio: pcm_s16le, 48000 Hz, stereo, s16, 1536 kb/s (default)
      Metadata:
        HANDLER_NAME    : SoundHandler
        VENDOR_ID       : [0][0][0][0]
        _STATISTICS_TAGS: BPS DURATION NUMBER_OF_FRAMES NUMBER_OF_BYTES
        BPS             : 193728
        DURATION        : 00:23:22.264000000
        NUMBER_OF_FRAMES: 65732
        NUMBER_OF_BYTES : 33957242
        _STATISTICS_WRITING_APP: mkvpropedit v66.0.0 ('Josie') 64-bit
        _STATISTICS_WRITING_DATE_UTC: 2025-05-29 10:50:48
        encoder         : Lavc61.19.100 pcm_s16le
frame=  109 fps=0.0 q=-0.0 size=N/A time=00:00:04.54 bitrate=N/A speed=8.82x    frame=  265 fps=256 q=-0.0 size=N/A time=00:00:11.05 bitrate=N/A speed=10.7x    frame=  461 fps=296 q=-0.0 size=N/A time=00:00:19.22 bitrate=N/A speed=12.3x    frame=  717 fps=347 q=-0.0 size=N/A time=00:00:29.90 bitrate=N/A speed=14.5x    frame= 1002 fps=387 q=-0.0 size=N/A time=00:00:41.79 bitrate=N/A speed=16.1x    frame= 1243 fps=401 q=-0.0 size=N/A time=00:00:51.84 bitrate=N/A speed=16.7x    frame= 1483 fps=410 q=-0.0 size=N/A time=00:01:01.85 bitrate=N/A speed=17.1x    frame= 1719 fps=416 q=-0.0 size=N/A time=00:01:11.69 bitrate=N/A speed=17.3x    frame= 1973 fps=425 q=-0.0 size=N/A time=00:01:22.29 bitrate=N/A speed=17.7x    frame= 2238 fps=434 q=-0.0 size=N/A time=00:01:33.34 bitrate=N/A speed=18.1x    frame= 2467 fps=434 q=-0.0 size=N/A time=00:01:42.89 bitrate=N/A speed=18.1x    frame= 2669 fps=431 q=-0.0 size=N/A time=00:01:51.31 bitrate=N/A speed=  18x    frame= 2847 fps=424 q=-0.0 size=N/A time=00:01:58.74 bitrate=N/A speed=17.7x    frame= 3025 fps=419 q=-0.0 size=N/A time=00:02:06.16 bitrate=N/A speed=17.5x    frame= 3121 fps=404 q=-0.0 size=N/A time=00:02:10.17 bitrate=N/A speed=16.8x    frame= 3230 fps=391 q=-0.0 size=N/A time=00:02:14.71 bitrate=N/A speed=16.3x    frame= 3361 fps=383 q=-0.0 size=N/A time=00:02:20.18 bitrate=N/A speed=  16x    frame= 3483 fps=375 q=-0.0 size=N/A time=00:02:25.27 bitrate=N/A speed=15.6x    frame= 3621 fps=370 q=-0.0 size=N/A time=00:02:31.02 bitrate=N/A speed=15.4x    frame= 3798 fps=368 q=-0.0 size=N/A time=00:02:38.40 bitrate=N/A speed=15.4x    frame= 4000 fps=369 q=-0.0 size=N/A time=00:02:46.83 bitrate=N/A speed=15.4x    frame= 4194 fps=370 q=-0.0 size=N/A time=00:02:54.92 bitrate=N/A speed=15.4x    frame= 4378 fps=369 q=-0.0 size=N/A time=00:03:02.59 bitrate=N/A speed=15.4x    frame= 4616 fps=372 q=-0.0 size=N/A time=00:03:12.52 bitrate=N/A speed=15.5x    frame= 4882 fps=378 q=-0.0 size=N/A time=00:03:23.62 bitrate=N/A speed=15.8x    frame= 5156 fps=384 q=-0.0 size=N/A time=00:03:35.04 bitrate=N/A speed=  16x    frame= 5410 fps=388 q=-0.0 size=N/A time=00:03:45.64 bitrate=N/A speed=16.2x    frame= 5639 fps=390 q=-0.0 size=N/A time=00:03:55.19 bitrate=N/A speed=16.3x    frame= 5886 fps=393 q=-0.0 size=N/A time=00:04:05.49 bitrate=N/A speed=16.4x    frame= 6106 fps=394 q=-0.0 size=N/A time=00:04:14.67 bitrate=N/A speed=16.4x    frame= 6347 fps=396 q=-0.0 size=N/A time=00:04:24.72 bitrate=N/A speed=16.5x    frame= 6611 fps=400 q=-0.0 size=N/A time=00:04:35.73 bitrate=N/A speed=16.7x    frame= 6878 fps=404 q=-0.0 size=N/A time=00:04:46.86 bitrate=N/A speed=16.8x    frame= 7136 fps=406 q=-0.0 size=N/A time=00:04:57.63 bitrate=N/A speed=16.9x    frame= 7357 fps=407 q=-0.0 size=N/A time=00:05:06.84 bitrate=N/A speed=  17x    frame= 7628 fps=411 q=-0.0 size=N/A time=00:05:18.15 bitrate=N/A speed=17.1x    frame= 7901 fps=414 q=-0.0 size=N/A time=00:05:29.53 bitrate=N/A speed=17.3x    frame= 8173 fps=417 q=-0.0 size=N/A time=00:05:40.88 bitrate=N/A speed=17.4x    frame= 8434 fps=419 q=-0.0 size=N/A time=00:05:51.76 bitrate=N/A speed=17.5x    frame= 8685 fps=421 q=-0.0 size=N/A time=00:06:02.23 bitrate=N/A speed=17.5x    frame= 8942 fps=422 q=-0.0 size=N/A time=00:06:12.95 bitrate=N/A speed=17.6x    frame= 9203 fps=425 q=-0.0 size=N/A time=00:06:23.84 bitrate=N/A speed=17.7x    frame= 9459 fps=426 q=-0.0 size=N/A time=00:06:34.51 bitrate=N/A speed=17.8x    frame= 9688 fps=427 q=-0.0 size=N/A time=00:06:44.07 bitrate=N/A speed=17.8x    frame= 9930 fps=427 q=-0.0 size=N/A time=00:06:54.16 bitrate=N/A speed=17.8x    frame=10165 fps=428 q=-0.0 size=N/A time=00:07:03.96 bitrate=N/A speed=17.9x    frame=10405 fps=429 q=-0.0 size=N/A time=00:07:13.97 bitrate=N/A speed=17.9x    frame=10679 fps=431 q=-0.0 size=N/A time=00:07:25.40 bitrate=N/A speed=  18x    frame=10944 fps=432 q=-0.0 size=N/A time=00:07:36.45 bitrate=N/A speed=  18x    frame=11202 fps=434 q=-0.0 size=N/A time=00:07:47.21 bitrate=N/A speed=18.1x    frame=11486 fps=436 q=-0.0 size=N/A time=00:07:59.06 bitrate=N/A speed=18.2x    frame=11754 fps=438 q=-0.0 size=N/A time=00:08:10.23 bitrate=N/A speed=18.3x    frame=12020 fps=439 q=-0.0 size=N/A time=00:08:21.33 bitrate=N/A speed=18.3x    frame=12285 fps=441 q=-0.0 size=N/A time=00:08:32.38 bitrate=N/A speed=18.4x    frame=12536 fps=442 q=-0.0 size=N/A time=00:08:42.85 bitrate=N/A speed=18.4x    frame=12800 fps=443 q=-0.0 size=N/A time=00:08:53.86 bitrate=N/A speed=18.5x    frame=13069 fps=444 q=-0.0 size=N/A time=00:09:05.08 bitrate=N/A speed=18.5x    frame=13345 fps=446 q=-0.0 size=N/A time=00:09:16.59 bitrate=N/A speed=18.6x    frame=13629 fps=447 q=-0.0 size=N/A time=00:09:28.44 bitrate=N/A speed=18.7x    frame=13888 fps=448 q=-0.0 size=N/A time=00:09:39.24 bitrate=N/A speed=18.7x    frame=14164 fps=450 q=-0.0 size=N/A time=00:09:50.75 bitrate=N/A speed=18.8x    frame=14409 fps=450 q=-0.0 size=N/A time=00:10:00.97 bitrate=N/A speed=18.8x    frame=14680 fps=451 q=-0.0 size=N/A time=00:10:12.27 bitrate=N/A speed=18.8x    frame=14947 fps=452 q=-0.0 size=N/A time=00:10:23.41 bitrate=N/A speed=18.9x    frame=15228 fps=454 q=-0.0 size=N/A time=00:10:35.13 bitrate=N/A speed=18.9x    frame=15510 fps=455 q=-0.0 size=N/A time=00:10:46.89 bitrate=N/A speed=  19x    frame=15777 fps=456 q=-0.0 size=N/A time=00:10:58.03 bitrate=N/A speed=  19x    frame=15982 fps=455 q=-0.0 size=N/A time=00:11:06.58 bitrate=N/A speed=  19x    frame=16233 fps=456 q=-0.0 size=N/A time=00:11:17.05 bitrate=N/A speed=  19x    frame=16494 fps=457 q=-0.0 size=N/A time=00:11:27.93 bitrate=N/A speed=  19x    frame=16747 fps=457 q=-0.0 size=N/A time=00:11:38.48 bitrate=N/A speed=19.1x    frame=16996 fps=457 q=-0.0 size=N/A time=00:11:48.87 bitrate=N/A speed=19.1x    frame=17239 fps=458 q=-0.0 size=N/A time=00:11:59.00 bitrate=N/A speed=19.1x    frame=17490 fps=458 q=-0.0 size=N/A time=00:12:09.47 bitrate=N/A speed=19.1x    frame=17739 fps=458 q=-0.0 size=N/A time=00:12:19.86 bitrate=N/A speed=19.1x    frame=17979 fps=458 q=-0.0 size=N/A time=00:12:29.87 bitrate=N/A speed=19.1x    frame=18177 fps=457 q=-0.0 size=N/A time=00:12:38.17 bitrate=N/A speed=19.1x    frame=18403 fps=457 q=-0.0 size=N/A time=00:12:47.55 bitrate=N/A speed=19.1x    frame=18632 fps=457 q=-0.0 size=N/A time=00:12:57.10 bitrate=N/A speed=19.1x    frame=18859 fps=457 q=-0.0 size=N/A time=00:13:06.57 bitrate=N/A speed=  19x    frame=19073 fps=456 q=-0.0 size=N/A time=00:13:15.50 bitrate=N/A speed=  19x    frame=19296 fps=456 q=-0.0 size=N/A time=00:13:24.80 bitrate=N/A speed=  19x    frame=19522 fps=456 q=-0.0 size=N/A time=00:13:34.23 bitrate=N/A speed=  19x    frame=19756 fps=456 q=-0.0 size=N/A time=00:13:43.98 bitrate=N/A speed=  19x    frame=19967 fps=455 q=-0.0 size=N/A time=00:13:52.79 bitrate=N/A speed=  19x    frame=20220 fps=455 q=-0.0 size=N/A time=00:14:03.34 bitrate=N/A speed=  19x    frame=20473 fps=456 q=-0.0 size=N/A time=00:14:13.89 bitrate=N/A speed=  19x    frame=20745 fps=457 q=-0.0 size=N/A time=00:14:25.23 bitrate=N/A speed=  19x    frame=21032 fps=458 q=-0.0 size=N/A time=00:14:37.20 bitrate=N/A speed=19.1x    frame=21302 fps=458 q=-0.0 size=N/A time=00:14:48.47 bitrate=N/A speed=19.1x    frame=21592 fps=460 q=-0.0 size=N/A time=00:15:00.56 bitrate=N/A speed=19.2x    frame=21879 fps=460 q=-0.0 size=N/A time=00:15:12.53 bitrate=N/A speed=19.2x    frame=22166 fps=462 q=-0.0 size=N/A time=00:15:24.50 bitrate=N/A speed=19.3x    frame=22451 fps=463 q=-0.0 size=N/A time=00:15:36.39 bitrate=N/A speed=19.3x    frame=22730 fps=463 q=-0.0 size=N/A time=00:15:48.03 bitrate=N/A speed=19.3x    frame=23011 fps=464 q=-0.0 size=N/A time=00:15:59.75 bitrate=N/A speed=19.4x    frame=23283 fps=465 q=-0.0 size=N/A time=00:16:11.09 bitrate=N/A speed=19.4x    frame=23537 fps=465 q=-0.0 size=N/A time=00:16:21.68 bitrate=N/A speed=19.4x    frame=23771 fps=465 q=-0.0 size=N/A time=00:16:31.44 bitrate=N/A speed=19.4x    frame=23998 fps=465 q=-0.0 size=N/A time=00:16:40.91 bitrate=N/A speed=19.4x    frame=24231 fps=465 q=-0.0 size=N/A time=00:16:50.63 bitrate=N/A speed=19.4x    frame=24498 fps=465 q=-0.0 size=N/A time=00:17:01.77 bitrate=N/A speed=19.4x    frame=24741 fps=465 q=-0.0 size=N/A time=00:17:11.90 bitrate=N/A speed=19.4x    frame=25008 fps=466 q=-0.0 size=N/A time=00:17:23.04 bitrate=N/A speed=19.4x    frame=25265 fps=466 q=-0.0 size=N/A time=00:17:33.76 bitrate=N/A speed=19.4x    frame=25512 fps=466 q=-0.0 size=N/A time=00:17:44.06 bitrate=N/A speed=19.4x    frame=25785 fps=467 q=-0.0 size=N/A time=00:17:55.44 bitrate=N/A speed=19.5x    frame=26032 fps=467 q=-0.0 size=N/A time=00:18:05.75 bitrate=N/A speed=19.5x    frame=26275 fps=467 q=-0.0 size=N/A time=00:18:15.88 bitrate=N/A speed=19.5x    frame=26534 fps=467 q=-0.0 size=N/A time=00:18:26.68 bitrate=N/A speed=19.5x    frame=26800 fps=468 q=-0.0 size=N/A time=00:18:37.78 bitrate=N/A speed=19.5x    frame=27071 fps=468 q=-0.0 size=N/A time=00:18:49.08 bitrate=N/A speed=19.5x    frame=27350 fps=469 q=-0.0 size=N/A time=00:19:00.72 bitrate=N/A speed=19.6x    frame=27587 fps=469 q=-0.0 size=N/A time=00:19:10.60 bitrate=N/A speed=19.6x    frame=27846 fps=469 q=-0.0 size=N/A time=00:19:21.41 bitrate=N/A speed=19.6x    frame=28090 fps=469 q=-0.0 size=N/A time=00:19:31.58 bitrate=N/A speed=19.6x    frame=28331 fps=469 q=-0.0 size=N/A time=00:19:41.63 bitrate=N/A speed=19.6x    frame=28609 fps=470 q=-0.0 size=N/A time=00:19:53.23 bitrate=N/A speed=19.6x    frame=28840 fps=470 q=-0.0 size=N/A time=00:20:02.86 bitrate=N/A speed=19.6x    frame=29089 fps=470 q=-0.0 size=N/A time=00:20:13.25 bitrate=N/A speed=19.6x    frame=29354 fps=470 q=-0.0 size=N/A time=00:20:24.30 bitrate=N/A speed=19.6x    frame=29613 fps=470 q=-0.0 size=N/A time=00:20:35.10 bitrate=N/A speed=19.6x    frame=29871 fps=471 q=-0.0 size=N/A time=00:20:45.86 bitrate=N/A speed=19.6x    frame=30143 fps=471 q=-0.0 size=N/A time=00:20:57.21 bitrate=N/A speed=19.6x    frame=30412 fps=471 q=-0.0 size=N/A time=00:21:08.43 bitrate=N/A speed=19.7x    frame=30670 fps=472 q=-0.0 size=N/A time=00:21:19.23 bitrate=N/A speed=19.7x    frame=30931 fps=472 q=-0.0 size=N/A time=00:21:30.08 bitrate=N/A speed=19.7x    frame=31206 fps=472 q=-0.0 size=N/A time=00:21:41.55 bitrate=N/A speed=19.7x    frame=31463 fps=472 q=-0.0 size=N/A time=00:21:52.26 bitrate=N/A speed=19.7x    frame=31559 fps=470 q=-0.0 size=N/A time=00:21:56.27 bitrate=N/A speed=19.6x    frame=31654 fps=468 q=-0.0 size=N/A time=00:22:00.23 bitrate=N/A speed=19.5x    frame=31767 fps=466 q=-0.0 size=N/A time=00:22:04.94 bitrate=N/A speed=19.4x    frame=31913 fps=465 q=-0.0 size=N/A time=00:22:11.03 bitrate=N/A speed=19.4x    frame=32068 fps=464 q=-0.0 size=N/A time=00:22:17.50 bitrate=N/A speed=19.3x    frame=32211 fps=462 q=-0.0 size=N/A time=00:22:23.46 bitrate=N/A speed=19.3x    frame=32348 fps=461 q=-0.0 size=N/A time=00:22:29.18 bitrate=N/A speed=19.2x    frame=32460 fps=459 q=-0.0 size=N/A time=00:22:33.85 bitrate=N/A speed=19.1x    frame=32564 fps=457 q=-0.0 size=N/A time=00:22:38.19 bitrate=N/A speed=19.1x    frame=32706 fps=456 q=-0.0 size=N/A time=00:22:44.11 bitrate=N/A speed=  19x    frame=32858 fps=455 q=-0.0 size=N/A time=00:22:50.45 bitrate=N/A speed=  19x    frame=33012 fps=454 q=-0.0 size=N/A time=00:22:56.87 bitrate=N/A speed=18.9x    frame=33137 fps=452 q=-0.0 size=N/A time=00:23:02.08 bitrate=N/A speed=18.9x    frame=33288 fps=451 q=-0.0 size=N/A time=00:23:08.38 bitrate=N/A speed=18.8x    frame=33383 fps=449 q=-0.0 size=N/A time=00:23:12.34 bitrate=N/A speed=18.7x    frame=33490 fps=448 q=-0.0 size=N/A time=00:23:16.81 bitrate=N/A speed=18.7x    frame=33592 fps=446 q=-0.0 size=N/A time=00:23:21.06 bitrate=N/A speed=18.6x    [Parsed_psnr_10 @ 000002b1262bb5c0] PSNR y:47.120251 u:51.155035 v:51.583785 average:48.132326 min:34.175069 max:inf
[out#0/null @ 000002b11f694540] video:14446KiB audio:262928KiB subtitle:0KiB other streams:0KiB global headers:0KiB muxing overhead: unknown
frame=33620 fps=445 q=-0.0 Lsize=N/A time=00:23:22.23 bitrate=N/A speed=18.6x    
